<?xml version="1.0" encoding="UTF-8" standalone="no"?>
<!-- Created with Inkscape (http://www.inkscape.org/) -->

<svg
   xmlns:dc="http://purl.org/dc/elements/1.1/"
   xmlns:cc="http://creativecommons.org/ns#"
   xmlns:rdf="http://www.w3.org/1999/02/22-rdf-syntax-ns#"
   xmlns:svg="http://www.w3.org/2000/svg"
   xmlns="http://www.w3.org/2000/svg"
   xmlns:sodipodi="http://sodipodi.sourceforge.net/DTD/sodipodi-0.dtd"
   xmlns:inkscape="http://www.inkscape.org/namespaces/inkscape"
   width="150"
   height="100"
   viewBox="0 0 39.6875 26.458334"
   version="1.1"
   id="svg8"
   sodipodi:docname="a2.svg"
   inkscape:version="0.92.4 (5da689c313, 2019-01-14)">
  <defs
     id="defs2" />
  <sodipodi:namedview
     id="base"
     pagecolor="#ffffff"
     bordercolor="#666666"
     borderopacity="1.0"
     inkscape:pageopacity="0.0"
     inkscape:pageshadow="2"
     inkscape:zoom="8.19"
     inkscape:cx="59.920635"
     inkscape:cy="54.884005"
     inkscape:document-units="px"
     inkscape:current-layer="layer1"
     showgrid="true"
     inkscape:window-width="1920"
     inkscape:window-height="1018"
     inkscape:window-x="1072"
     inkscape:window-y="442"
     inkscape:window-maximized="1"
     units="px"
     showguides="false">
    <inkscape:grid
       type="xygrid"
       id="grid4919"
       enabled="false"
       spacingx="1.3229167"
       spacingy="1.3229167"
       snapvisiblegridlinesonly="true" />
    <inkscape:grid
       type="axonomgrid"
       id="grid4921"
       units="mm"
       empspacing="5"
       enabled="false" />
  </sodipodi:namedview>
  <metadata
     id="metadata5">
    <rdf:RDF>
      <cc:Work
         rdf:about="">
        <dc:format>image/svg+xml</dc:format>
        <dc:type
           rdf:resource="http://purl.org/dc/dcmitype/StillImage" />
        <dc:title />
      </cc:Work>
    </rdf:RDF>
  </metadata>
  <g
     inkscape:label="Layer 1"
     inkscape:groupmode="layer"
     id="layer1"
     transform="translate(0,-270.54165)">
    <path
       style="fill:#000000;stroke-width:0.26458332"
       d="m 6.203852,290.6926 c 0,-0.30537 1.31665,-1.74195 3.32397,-3.62676 7.440371,-6.98626 11.623911,-9.57745 13.994381,-8.66782 0.58583,0.2248 1.20249,1.49062 1.20249,2.46834 0,0.78476 0.5625,1.13052 0.91398,0.56181 0.36013,-0.58269 6.80511,-5.04659 7.28628,-5.04659 1.17453,0 0.47989,0.95577 -1.92081,2.64287 -1.34365,0.94425 -3.36877,2.4623 -4.50028,3.37344 -1.1315,0.91113 -2.29236,1.65661 -2.57969,1.65661 -0.46981,0 -0.5224,-0.18428 -0.5224,-1.83044 0,-1.00675 -0.0723,-2.01878 -0.1606,-2.24896 -0.18576,-0.48407 -1.30861,-0.55099 -2.38411,-0.14209 -1.1426,0.43442 -4.35401,2.65288 -4.2003,2.90159 0.13249,0.21438 0.92417,5.80702 0.92417,6.5286 0,0.19115 -0.28426,0.34755 -0.63169,0.34755 -0.60442,0 -0.64521,-0.11708 -0.94476,-2.71198 -0.17219,-1.49159 -0.36457,-2.87157 -0.42751,-3.06662 -0.14049,-0.43533 -1.48449,0.66316 -5.576642,4.55798 -2.904269,2.76421 -3.796479,3.30532 -3.796479,2.30247 z"
       id="path4102"
       inkscape:connector-curvature="0" />
  </g>
</svg>
