<?xml version="1.0" encoding="UTF-8" standalone="no"?>
<!-- Created with Inkscape (http://www.inkscape.org/) -->

<svg
   xmlns:dc="http://purl.org/dc/elements/1.1/"
   xmlns:cc="http://creativecommons.org/ns#"
   xmlns:rdf="http://www.w3.org/1999/02/22-rdf-syntax-ns#"
   xmlns:svg="http://www.w3.org/2000/svg"
   xmlns="http://www.w3.org/2000/svg"
   xmlns:sodipodi="http://sodipodi.sourceforge.net/DTD/sodipodi-0.dtd"
   xmlns:inkscape="http://www.inkscape.org/namespaces/inkscape"
   version="1.1"
   id="svg2"
   width="100"
   height="100"
   viewBox="0 0 100 100"
   sodipodi:docname="doom.svg"
   inkscape:version="0.92.4 (5da689c313, 2019-01-14)">
  <metadata
     id="metadata8">
    <rdf:RDF>
      <cc:Work
         rdf:about="">
        <dc:format>image/svg+xml</dc:format>
        <dc:type
           rdf:resource="http://purl.org/dc/dcmitype/StillImage" />
        <dc:title></dc:title>
      </cc:Work>
    </rdf:RDF>
  </metadata>
  <defs
     id="defs6" />
  <sodipodi:namedview
     pagecolor="#ffffff"
     bordercolor="#666666"
     borderopacity="1"
     objecttolerance="10"
     gridtolerance="10"
     guidetolerance="10"
     inkscape:pageopacity="0"
     inkscape:pageshadow="2"
     inkscape:window-width="1920"
     inkscape:window-height="1018"
     id="namedview4"
     showgrid="false"
     inkscape:zoom="7.9013823"
     inkscape:cx="40.742834"
     inkscape:cy="50.222152"
     inkscape:window-x="1072"
     inkscape:window-y="442"
     inkscape:window-maximized="1"
     inkscape:current-layer="svg2" />
  <path
     style="fill:#000000;stroke-width:0.48243544"
     d="m 52.644421,98.440985 c 0,-0.398009 0.325644,-0.723653 0.723653,-0.723653 0.39801,0 0.723654,0.325644 0.723654,0.723653 0,0.398009 -0.325644,0.723653 -0.723654,0.723653 -0.398009,0 -0.723653,-0.325644 -0.723653,-0.723653 z m 4.63476,-0.03947 c -0.420352,-1.095389 -0.366424,-1.269056 0.271581,-0.874743 0.379512,0.234552 0.463501,0.08583 0.256355,-0.453966 -0.169426,-0.441534 -0.123022,-0.802793 0.102969,-0.802793 0.226066,0 0.509557,0.379918 0.63,0.844263 0.445484,1.717692 -0.661901,2.848222 -1.260905,1.287239 z m 5.134561,0.443605 c -0.895927,-0.361513 -0.755343,-3.406801 0.181456,-3.931068 0.656595,-0.367442 0.538579,-0.547887 -0.723653,-1.10661 -1.691705,-0.748821 -1.91943,-1.677076 -0.663891,-2.706231 1.541557,-0.579866 0.907788,-1.03789 3.901108,0.5931 0.316011,1.752834 1.043855,1.943951 1.043855,0.274101 0,-1.378372 0.137795,-1.564032 0.994375,-1.340023 0.591752,0.154746 1.095566,-0.0039 1.244261,-0.391119 0.481365,-1.254424 3.472224,0.288255 3.535241,1.823471 0.0091,0.205569 0.558088,0.580119 1.221437,0.832321 2.104806,0.800246 1.024708,3.141088 -1.297043,2.811036 -0.79225,-0.112618 -1.17871,-0.556813 -1.353261,-1.555439 l -0.244309,-1.397804 -0.676434,1.876235 c -0.585828,1.624911 -0.726699,1.747526 -1.051574,0.915363 -0.206332,-0.528473 -0.387079,-1.286511 -0.401658,-1.684521 -0.02367,-0.643245 0.02548,-0.643245 0.441142,0 0.378169,0.585176 0.469063,0.515937 0.475048,-0.361826 0.01206,-1.681215 1.614788,-1.379014 2.298865,0.433291 0.511353,1.354755 0.66163,1.445931 1.391465,0.844261 0.756715,-0.623822 0.73971,-0.686091 -0.226293,-0.82867 -0.574459,-0.08479 -1.044472,-0.431056 -1.044472,-0.769484 0,-0.338434 -0.437644,-1.011392 -0.972545,-1.495467 -0.942317,-0.852788 -0.994797,-0.851364 -1.688523,0.04583 -0.704537,0.911161 -0.728599,0.910542 -1.504536,-0.03888 -0.644172,-0.788199 -0.735277,-0.810284 -0.497588,-0.120609 0.826005,2.396584 -1.408424,3.094756 -2.732227,0.853719 -0.740161,-1.252978 -0.969333,-1.362929 -1.782418,-0.855148 -0.900888,0.562616 -0.891842,0.607719 0.262897,1.308375 1.387514,0.84189 1.5153,1.761879 0.41381,2.979015 -1.032443,1.140844 -0.506709,2.460594 0.900616,2.260757 0.69344,-0.09848 1.104822,-0.504145 1.135049,-1.119319 0.03604,-0.734474 -4.82e-4,-0.763271 -0.154168,-0.120609 -0.26065,1.091693 -2.196603,1.153089 -1.97898,0.06277 0.08579,-0.429826 1.206616,-1.193666 2.490723,-1.697421 1.63514,-0.641471 2.270101,-0.732554 2.119038,-0.303977 -0.118648,0.336566 -0.536393,0.587766 -0.928357,0.558217 -0.50125,-0.03778 -0.64675,0.291047 -0.49047,1.108553 0.338051,1.768378 -1.700465,3.025739 -3.637986,2.243928 z m 1.809134,-2.092666 c 0,-0.265338 -0.217097,-0.482434 -0.482436,-0.482434 -0.26534,0 -0.482436,0.217096 -0.482436,0.482434 0,0.26534 0.217096,0.482436 0.482436,0.482436 0.265339,0 0.482436,-0.217096 0.482436,-0.482436 z m -9.166275,0.820141 c 0,-0.610281 -0.260515,-1.370117 -0.578925,-1.688524 -0.450272,-0.450272 -0.396667,-0.578923 0.241221,-0.578923 0.590636,0 0.837914,0.438761 0.88364,1.567915 l 0.06348,1.567916 0.308803,-1.688525 c 0.330287,-1.806045 -0.119252,-2.486901 -1.356939,-2.055318 -0.615361,0.214572 -0.650516,0.141413 -0.177445,-0.369257 0.461734,-0.498423 0.854935,-0.516105 1.809131,-0.08136 1.201732,0.547546 1.676705,1.541049 0.73674,1.541049 -0.26534,0 -0.482435,0.651289 -0.482435,1.447307 0,0.96487 -0.241218,1.447306 -0.723654,1.447306 -0.433484,0 -0.723653,-0.444912 -0.723653,-1.109601 z M 35.876235,96.885637 c -1.14539,-0.142018 -1.770071,-0.578895 -2.303958,-1.611317 -0.402867,-0.779061 -1.029329,-1.416473 -1.392136,-1.416473 -1.498739,0 -1.674264,-3.113533 -0.21942,-3.892146 1.646378,-0.881109 3.492697,0.179297 3.178047,1.825276 -0.364576,1.907164 0.134977,2.858451 0.803295,1.529697 0.297425,-0.591336 0.866414,-1.173713 1.264423,-1.294167 0.584018,-0.176751 0.607291,-0.09567 0.120609,0.420215 -0.331674,0.351575 -0.603043,1.030001 -0.603043,1.507612 0,1.13341 -1.717273,1.15086 -2.373534,0.02412 -0.270458,-0.464345 -0.495017,-0.627167 -0.499022,-0.361827 -0.01649,1.094013 0.996384,1.930744 2.356047,1.946269 1.295266,0.01478 1.416526,-0.106945 1.152869,-1.157435 -0.21667,-0.863294 -0.135489,-1.075604 0.306752,-0.80228 0.372311,0.230097 0.495593,0.900711 0.323638,1.760479 -0.311123,1.555623 0.209285,1.802486 1.206966,0.572534 0.449895,-0.554635 0.468831,-0.700138 0.05907,-0.453961 -0.331674,0.199266 -0.603045,0.226663 -0.603045,0.0609 0,-0.707505 0.997861,-2.077145 1.71335,-2.351704 0.651457,-0.249987 0.721754,-0.04712 0.440132,1.269939 -0.591823,2.767828 -0.907689,2.923115 -4.931041,2.424273 z M 32.49715,91.833383 c -0.246028,-0.940812 -0.192565,-0.981369 0.476959,-0.361826 0.414732,0.383772 0.634751,0.894131 0.488935,1.134134 -0.145816,0.24 -0.01448,0.281461 0.291855,0.09213 0.306336,-0.189327 0.556976,-0.780705 0.556976,-1.314183 0,-1.420853 -2.117964,-1.034766 -2.325122,0.423853 -0.08479,0.597013 0.05772,1.08548 0.316661,1.08548 0.258951,0 0.346133,-0.476815 0.193736,-1.059592 z m 17.735094,4.451779 c 0,-0.257007 0.325644,-0.342332 0.723653,-0.189602 0.398009,0.152735 0.723654,0.363014 0.723654,0.467297 0,0.104276 -0.325645,0.189603 -0.723654,0.189603 -0.398009,0 -0.723653,-0.210285 -0.723653,-0.467298 z m -3.075525,-0.356861 c -0.165838,-0.165838 -0.286263,-0.970901 -0.267612,-1.789036 0.0289,-1.267952 0.0951,-1.345092 0.448524,-0.522636 0.228043,0.53068 0.429879,0.73968 0.448525,0.464446 0.03623,-0.534491 2.928523,-0.936278 2.928523,-0.406824 0,0.419242 -2.152931,2.32793 -2.769218,2.45506 -0.267969,0.05528 -0.622906,-0.03517 -0.788742,-0.20101 z m 2.351872,-1.588018 c 0.163989,-0.26534 0.06825,-0.482436 -0.212745,-0.482436 -0.281,0 -0.510908,0.217096 -0.510908,0.482436 0,0.26534 0.09574,0.482435 0.212744,0.482435 0.117007,0 0.34692,-0.217095 0.510909,-0.482435 z M 29.125694,93.99856 c -0.331675,-0.121619 -0.59972,-0.582947 -0.595658,-1.025176 0.0065,-0.699614 0.07321,-0.710058 0.514038,-0.08041 0.779148,1.112865 0.02902,-1.308437 -1.095983,-3.537675 -0.633884,-1.256069 -1.163633,-1.76072 -1.651679,-1.573443 -0.395168,0.151644 -0.599912,0.08385 -0.454985,-0.15064 0.42008,-0.679704 -1.158241,-1.054561 -2.167024,-0.514678 -1.313245,0.702832 -2.129647,2.368571 -1.479508,3.01871 0.366016,0.366015 0.764124,0.302241 1.371391,-0.219681 1.007072,-0.865542 2.711834,-1.543629 2.330796,-0.927096 -0.144927,0.234497 0.06089,0.55084 0.457378,0.702985 0.424368,0.162846 0.720882,0.889876 0.720882,1.767547 0,0.871101 0.200566,1.366966 0.482436,1.192758 0.26534,-0.163989 0.482435,0.04028 0.482435,0.453963 0,1.482853 -1.342934,0.736086 -1.653518,-0.919474 -0.381411,-2.033099 -1.001763,-2.496136 -2.002907,-1.49499 -0.899546,0.899549 -2.201025,0.975648 -3.001185,0.17549 -0.851027,-0.85103 -0.70858,-2.020734 0.420965,-3.456716 2.247446,-2.857167 6.122311,-0.993442 7.964729,3.830865 0.824956,2.160115 0.581153,3.206372 -0.642603,2.757665 z m 44.619538,-2.357691 c -0.187608,-0.187595 0.03513,-0.616173 0.494918,-0.952386 0.459806,-0.336218 0.66172,-0.785588 0.448694,-0.998602 -0.21301,-0.213015 -0.589264,-0.06795 -0.836105,0.322382 -0.336649,0.53232 -0.45067,0.550357 -0.456203,0.07217 -0.01052,-0.959468 1.371007,-2.145564 2.15127,-1.846151 0.408698,0.156836 0.807341,-0.11708 0.984982,-0.676794 0.164134,-0.517137 0.566018,-0.940253 0.893079,-0.940253 0.71601,0 1.752507,0.970121 1.752507,1.640281 0,0.268023 -0.257304,0.225139 -0.578922,-0.09649 -0.903481,-0.903481 -1.833255,-0.681561 -1.833255,0.437565 0,0.768901 -0.205638,0.938196 -0.844262,0.695068 -0.697376,-0.265488 -0.733679,-0.211513 -0.208744,0.310211 0.523941,0.520731 0.735699,0.499176 1.206089,-0.122765 0.313808,-0.414923 1.167583,-0.719818 1.897268,-0.677548 0.729683,0.04226 1.326697,-0.0089 1.326697,-0.113824 0,-0.530395 -1.478771,-2.945337 -2.139149,-3.493407 -0.415513,-0.344836 -0.755463,-0.926042 -0.755463,-1.291558 0,-0.82979 1.745797,-0.877164 2.267597,-0.06154 0.21218,0.331674 1.033406,0.603045 1.824917,0.603045 1.304114,0 1.469092,0.181044 1.758583,1.929741 0.376828,2.276291 -0.253897,3.30383 -1.841667,3.000306 -0.723216,-0.138248 -1.114818,0.01761 -1.114818,0.443643 0,0.821511 -1.295987,0.869513 -1.566483,0.05801 -0.142318,-0.426844 -0.44868,-0.34963 -1.067283,0.268962 -0.477234,0.477236 -1.192927,0.742893 -1.590439,0.590356 -0.397512,-0.152541 -0.972484,0.06421 -1.277731,0.48165 -0.305245,0.417446 -0.708485,0.60551 -0.896077,0.41791 z m 8.571641,-3.094202 c 0.492235,-0.796453 -0.246132,-2.405235 -1.120667,-2.441769 -0.656972,-0.02745 -0.627785,-0.11295 0.153128,-0.448526 1.07874,-0.463553 0.88055,-0.575756 -1.171716,-0.663349 -1.25798,-0.05368 -1.337341,0.0232 -0.723652,0.701336 0.379103,0.418903 0.689279,1.081046 0.689279,1.471428 0,0.747553 0.908788,1.867633 1.515315,1.867633 0.196607,0 0.492853,-0.219039 0.658313,-0.486753 z M 92.47416,54.927397 c 0.456821,-0.958073 3.301546,1.081996 3.652684,2.61948 0.282858,1.238517 0.308849,1.209784 0.361826,-0.399973 0.03513,-1.065508 0.429187,-2.07111 1.021949,-2.607559 0.53068,-0.48026 0.964872,-1.046779 0.964872,-1.25893 0,-0.212155 -0.555887,0.17016 -1.235322,0.849593 -0.679435,0.679429 -1.348814,1.12184 -1.487514,0.98314 -0.1387,-0.1387 0.200105,-0.704461 0.752901,-1.257256 0.55278,-0.552787 1.005063,-1.304132 1.005063,-1.669656 0,-0.948143 -1.223802,-1.836664 -2.642585,-1.918587 -2.555068,-0.147535 -0.838066,-1.276313 1.941411,-1.276313 1.119854,0 1.78884,0.292878 2.131505,0.933157 0.805562,1.505189 0.585255,3.978862 -0.452765,5.083774 -0.806888,0.858899 -1.254242,2.037606 -1.42415,3.752388 -0.09859,0.994743 -1.446206,0.18102 -1.713158,-1.034423 -0.214503,-0.976623 -0.660816,-1.463951 -1.485088,-1.621519 -1.13656,-0.197782 -1.345715,-0.407637 -1.391629,-1.177316 z m 5.528876,-4.718299 c -0.33564,-0.404425 -1.180685,-0.702787 -1.877881,-0.663031 l -1.267628,0.07229 1.355191,0.203726 c 0.745347,0.112046 1.47773,0.523082 1.62751,0.913397 0.149706,0.390315 0.384984,0.596999 0.522689,0.459297 0.137645,-0.137706 -0.02427,-0.581252 -0.359881,-0.985673 z M 23.215858,88.395916 c 0,-0.388573 0.325644,-0.831457 0.723653,-0.984192 0.398011,-0.15273 0.723654,-0.160449 0.723654,-0.01717 0,0.143298 -0.325643,0.586183 -0.723654,0.984192 -0.627627,0.627624 -0.723653,0.6299 -0.723653,0.01717 z M 18.205772,86.39707 c -1.006583,-1.536239 -0.990846,-1.676116 0.381554,-3.391435 1.143716,-1.42949 1.166574,-1.435062 2.168564,-0.528271 1.201466,1.087312 1.296841,2.558668 0.261653,4.036605 -0.975784,1.393129 -1.846071,1.356946 -2.811771,-0.116899 z m 2.356692,-1.745697 c 0,-2.08035 -1.27218,-2.282596 -1.490282,-0.23692 -0.174418,1.635915 0.140056,2.33531 0.931449,2.071515 0.307358,-0.102437 0.558833,-0.928022 0.558833,-1.834595 z m 63.541214,0.732028 c -0.586204,-0.410597 -1.065821,-0.951323 -1.065821,-1.201617 0,-0.673609 1.131357,-0.552161 2.199363,0.236094 1.392295,1.027603 0.292522,1.964367 -1.133542,0.965523 z M 80.62568,83.003049 c 0,-0.808069 1.227135,-0.987758 1.685102,-0.246741 0.175079,0.283277 -0.04131,0.347927 -0.533106,0.159232 -0.561661,-0.215533 -0.715678,-0.136198 -0.479013,0.246741 0.191859,0.310435 0.11895,0.564422 -0.162084,0.564422 -0.280988,0 -0.510899,-0.325645 -0.510899,-0.723654 z m 4.012989,-0.910268 c 0.180567,-0.470563 -0.02096,-0.596435 -0.679209,-0.424293 -0.711547,0.186076 -0.864011,0.05732 -0.63594,-0.537037 0.164993,-0.42999 0.687742,-0.781797 1.161644,-0.781797 0.907084,0 1.640357,1.227085 1.179178,1.973278 -0.433997,0.702223 -1.308185,0.506066 -1.025673,-0.230151 z M 9.5219342,79.642974 C 9.0934079,78.988961 8.7427964,78.154226 8.7427964,77.788005 c 0,-0.366223 -0.4341919,-1.058792 -0.9648709,-1.539052 -1.6577989,-1.500286 -0.9546945,-6.030443 0.935955,-6.030443 1.8163435,0 2.6585105,3.089902 0.9867809,3.62049 -1.132784,0.35953 -0.7876693,1.293028 0.4052116,1.096049 0.636787,-0.105162 0.807883,0.253424 0.807883,1.693122 0,2.111992 1.012863,3.07501 2.159941,2.053646 0.561534,-0.499996 0.857017,-0.520205 1.253828,-0.08575 0.679392,0.743827 0.323281,1.753594 -0.618431,1.753594 -0.636186,0 -0.647702,-0.114941 -0.0804,-0.802638 0.601138,-0.728718 0.560905,-0.748706 -0.436876,-0.217014 -0.604446,0.322094 -0.971551,0.791832 -0.81579,1.043857 0.676392,1.094422 -2.128786,0.376067 -2.854087,-0.730885 z m 1.2937348,-0.452159 c -0.476732,-0.63736 -0.9559109,-1.072883 -1.0648418,-0.967829 -0.198486,0.191427 1.3873118,2.126668 1.7426578,2.126668 0.103933,0 -0.201085,-0.521478 -0.677816,-1.158839 z m -0.9680426,-2.70131 c 0.1388655,-0.531046 0.073149,-0.854693 -0.1460574,-0.71922 -0.219202,0.135473 -0.7416963,-0.09683 -1.161097,-0.516231 -0.4194007,-0.4194 -0.7625465,-0.523127 -0.7625465,-0.230507 0,0.292617 0.325644,0.656996 0.7236532,0.809725 0.3980092,0.152734 0.7236531,0.58011 0.7236531,0.949732 0,0.978201 0.3306071,0.822296 0.6223946,-0.293499 z M 9.396795,72.517986 c -0.1256745,-0.203358 0.044821,-0.369735 0.3788867,-0.369735 0.4523953,0 0.4679373,-0.139453 0.060907,-0.546493 -0.7897498,-0.789752 -1.8954603,-0.201238 -2.1529858,1.145924 -0.2015977,1.05459 -0.1227044,1.114281 0.8598719,0.650579 0.5950087,-0.280797 0.9790062,-0.676924 0.8533273,-0.880275 z m 79.73181,7.929241 c -0.13086,-0.211673 -0.03844,-0.700139 0.205351,-1.08548 0.594135,-0.939186 0.578019,-2.037827 -0.02443,-1.665488 -0.669785,0.413954 -0.60624,-0.406866 0.08503,-1.098124 0.434961,-0.434964 0.73499,-0.429334 1.285072,0.02412 0.621422,0.51226 0.641096,0.447917 0.146691,-0.479951 -0.469244,-0.8807 -0.848439,-1.020591 -2.129334,-0.785549 -1.492053,0.273791 -1.517336,0.253312 -0.593531,-0.481056 1.246537,-0.990932 2.951645,-1.008676 3.325426,-0.03458 0.459069,1.196311 0.343314,4.030349 -0.206573,5.057829 -0.507053,0.947427 -1.660346,1.249455 -2.093679,0.548293 z m 1.525823,-2.093268 c -0.120459,-0.36132 -0.339122,-0.142635 -0.509709,0.509717 -0.209858,0.802459 -0.147142,0.990817 0.21093,0.632815 0.280341,-0.280343 0.414789,-0.794483 0.298779,-1.142532 z m -4.239522,0.789606 c 0,-0.398009 0.420623,-1.144278 0.934718,-1.658371 0.635956,-0.635967 0.751604,-1.009279 0.361827,-1.168001 -0.328056,-0.133589 -0.236213,-0.249558 0.21491,-0.27137 0.563455,-0.02725 0.767013,0.339742 0.714774,1.28861 -0.04026,0.729684 -0.244685,1.598067 -0.454454,1.929741 -0.531328,0.840069 -1.771775,0.75563 -1.771775,-0.120609 z m 1.447306,-0.482434 c 0.346162,-0.41711 0.393049,-0.723654 0.110656,-0.723654 -0.269439,0 -0.614849,0.325644 -0.767585,0.723654 -0.152735,0.398009 -0.202531,0.723652 -0.110656,0.723652 0.09181,0 0.437268,-0.325643 0.767585,-0.723652 z m 4.181103,-5.387198 c -0.690788,-0.69079 -0.301703,-3.032136 0.582525,-3.505362 1.643658,-0.879658 3.256229,1.885811 1.893982,3.248065 -0.630755,0.63075 -1.964477,0.769319 -2.476507,0.257297 z m 2.090558,-1.579644 c 0,-0.515018 -0.236017,-1.082261 -0.524467,-1.260541 -0.737689,-0.455916 -1.591434,0.533526 -1.243266,1.440857 0.413552,1.077673 1.767733,0.939543 1.767733,-0.180316 z M 8.4755075,68.884426 C 7.7983838,68.412456 5.6865287,64.272434 6.3238093,64.666295 6.6314298,64.856413 6.6105478,64.512669 6.2689319,63.762905 5.9656383,63.097251 5.4130327,62.435789 5.0409196,62.292997 3.9494652,61.874166 3.7534201,63.313826 4.6102901,65.455352 c 1.0534386,2.6328 0.605544,2.96434 -0.6581957,0.487208 -1.2637411,-2.477138 -1.2645522,-3.749134 -0.00287,-4.424392 1.2441105,-0.665829 2.1323617,-0.01371 3.2688228,2.399865 0.4447482,0.944536 1.1261581,1.71734 1.5142427,1.71734 1.0201112,0 2.0304851,2.204518 1.3732991,2.996378 -0.5868238,0.707082 -0.9070101,0.756709 -1.6301357,0.252675 z M 9.4924288,66.883495 C 9.3141507,66.595038 8.8786834,66.359026 8.5247221,66.359026 c -0.3539615,0 -0.7804525,-0.356717 -0.9477551,-0.792704 -0.1673041,-0.435986 -0.4267443,-0.670148 -0.5765329,-0.52036 -0.1497963,0.149796 0.2228941,0.942187 0.8281849,1.760889 0.6696551,0.905753 1.2742461,1.314821 1.5442381,1.04483 0.2440415,-0.244044 0.2978482,-0.679722 0.1195687,-0.968186 z m 83.3060932,-0.04205 c -0.331418,-0.530679 -0.998732,-0.964872 -1.482946,-0.964872 -1.172575,0 -1.62115,-0.507285 -1.053444,-1.19133 0.646388,-0.778834 7.24879,0.116222 7.24879,0.982677 0,0.614474 -2.548678,2.138396 -3.57634,2.138396 -0.293411,0 -0.804642,-0.434193 -1.13606,-0.964871 z m 3.265093,-1.077834 c 0.398009,-0.133378 -0.09905,-0.249371 -1.104521,-0.257751 -1.520742,-0.01266 -1.733075,0.09933 -1.262684,0.666123 0.34568,0.416521 0.775002,0.516707 1.104521,0.257751 0.296471,-0.232983 0.864674,-0.53274 1.262684,-0.666123 z m -3.738874,-0.688976 c -0.331676,-0.13383 -0.874416,-0.13383 -1.20609,0 -0.331674,0.13383 -0.06031,0.243336 0.603045,0.243336 0.663349,0 0.934718,-0.109494 0.603045,-0.243336 z M 4.9607497,65.130223 C 4.6528202,64.4544 4.4008774,63.542597 4.4008774,63.104006 c 0,-1.450815 1.1837473,0.259521 1.262431,1.82402 0.087803,1.745732 0.010856,1.767889 -0.7025587,0.202209 z M 91.896156,62.740735 c -0.416627,-1.085693 0.163878,-2.170959 1.161222,-2.170959 0.485934,0 1.13484,-0.251317 1.442,-0.558479 0.423006,-0.423008 0.730362,-0.415815 1.267132,0.02967 0.554198,0.459945 0.600949,0.897128 0.214473,2.00578 -0.417412,1.197365 -0.75159,1.417645 -2.150667,1.417645 -1.027377,0 -1.76193,-0.274828 -1.93416,-0.723654 z m 3.341921,-1.204357 c 0.209121,-0.7997 0.09709,-0.837604 -1.037944,-0.351377 -1.754558,0.751571 -1.817531,0.828496 -1.060906,1.296111 0.899788,0.556104 1.813972,0.14461 2.09885,-0.944734 z M 1.1321763,59.20457 C 0.69237474,58.202407 0.65456828,57.440328 0.99962755,56.53275 1.5346775,55.125462 2.3523463,54.874539 2.7791087,55.986663 c 0.1527316,0.39801 0.5672974,0.723654 0.9212588,0.723654 0.9475967,0 1.3458034,0.910992 0.7251155,1.658873 -0.2974923,0.35846 -0.4790041,0.945964 -0.4033597,1.305568 0.081441,0.387144 -0.3544031,0.710531 -1.0685522,0.792852 C 2.0189266,60.575364 1.609001,60.291094 1.1321763,59.20457 Z m 2.067476,-0.556643 C 3.0609973,58.423584 3.2202759,58.130081 3.5536091,57.995699 3.9192303,57.8483 3.8247274,57.736254 3.3153976,57.713276 2.8510535,57.692339 2.455877,57.29527 2.4372279,56.830926 c -0.02875,-0.715949 -0.092235,-0.697616 -0.4177164,0.120609 -0.2110927,0.530678 -0.1958341,1.037236 0.033906,1.12568 0.2297464,0.08845 0.4177182,0.481177 0.4177182,0.872736 0,0.391559 0.2206374,0.57556 0.4903053,0.408898 0.2696663,-0.166662 0.3768619,-0.48658 0.2382113,-0.710922 z M 1.8680907,54.219849 c -0.90860035,-0.331848 -1.31706038,-0.81396 -1.29611771,-1.529827 0.0286584,-0.979473 0.0624901,-0.969352 0.53746711,0.160812 0.2994053,0.712402 0.5995539,0.959244 0.7332768,0.603043 0.1245139,-0.331674 0.4382049,-0.603043 0.6970934,-0.603043 0.2588868,0 0.3191249,0.245259 0.1338608,0.545021 -0.1980142,0.320396 -0.081758,0.459997 0.2820679,0.338722 0.6280223,-0.209343 1.1689109,-2.829059 0.5667515,-2.744979 -0.1802364,0.02518 -0.9406345,0.02006 -1.6897736,-0.01145 -1.78577277,-0.0749 -1.58726003,-1.532616 0.2765921,-2.031064 1.5779589,-0.421995 1.8120561,0.378172 0.2767913,0.946105 l -1.0499045,0.388384 1.0499045,0.274558 c 0.6168615,0.161314 1.0782416,0.04443 1.1186064,-0.283323 0.3051691,-2.478079 0.259377,-3.693701 -0.1391374,-3.693701 -0.257916,0 -0.3347634,0.217097 -0.1707745,0.482435 0.1639888,0.26534 -0.1285239,0.482436 -0.6500155,0.482436 -0.710661,0 -0.884972,-0.2417 -0.6958588,-0.964871 0.2430706,-0.929502 2.462251,-1.440243 2.6202456,-0.603044 0.3381843,1.792012 0.2106373,7.727831 -0.1762291,8.201404 -0.5659662,0.692815 -0.6402431,0.694108 -2.4248396,0.04231 z M 94.753712,53.665213 c 1.071459,-1.635254 0.159309,-2.241226 -1.099711,-0.730572 -0.658842,0.790524 -0.9379,0.908363 -0.944006,0.398627 -0.019,-1.592742 1.55002,-2.588425 2.948268,-1.870866 1.02005,0.523467 0.667812,1.957289 -0.688948,2.804606 -1.019476,0.63667 -1.02216,0.629173 -0.215603,-0.601795 z m 1.280851,-7.324737 c -0.19718,-2.239461 -0.314412,-2.42706 -1.659472,-2.655562 -1.25976,-0.214013 -1.466242,-0.472106 -1.593394,-1.99173 -0.12875,-1.539341 -4.83e-4,-1.773689 1.084907,-1.981174 0.677053,-0.129428 1.611183,0.05326 2.075829,0.405978 0.464661,0.352719 1.201521,0.648206 1.637477,0.656648 1.051377,0.02035 1.565111,1.42125 0.649976,1.77242 -0.518075,0.198803 -0.695627,0.986981 -0.65168,2.892919 0.03317,1.440817 -0.07689,2.756945 -0.244671,2.924728 -0.167781,0.16778 -0.339167,-0.762336 -0.380837,-2.066919 l -0.07583,-2.371977 -0.315091,2.412178 -0.315075,2.412177 z m 0.511487,-3.60196 c 0,-0.69627 -2.015103,-2.435167 -2.485235,-2.1446 -0.699336,0.432209 -0.448952,2.125803 0.314276,2.125803 0.398009,0 0.730256,-0.27137 0.738322,-0.603044 0.0075,-0.334675 0.233498,-0.227329 0.506407,0.241218 0.544172,0.934291 0.92623,1.091288 0.92623,0.380623 z M 0.61756717,47.061638 c 0,-0.663349 0.10949341,-0.934718 0.24333481,-0.603044 0.13383037,0.331675 0.13383037,0.874415 0,1.206089 -0.13383143,0.331674 -0.24333481,0.06031 -0.24333481,-0.603045 z M 0.84955494,43.175017 C 0.46791769,41.266829 1.7165946,39.234999 3.1455245,39.439045 c 0.5577738,0.07965 1.0198731,0.470456 1.0268865,0.868465 0.00709,0.398009 0.1657679,0.967713 0.3527869,1.266003 0.4070896,0.649301 -1.718527,3.075916 -2.6943764,3.075916 -0.3795047,0 -0.8182239,-0.659204 -0.98126656,-1.474412 z M 3.3456221,42.595539 c 0.7019376,0.262831 0.7252724,0.195621 0.16946,-0.488042 -0.3545177,-0.436069 -0.504528,-1.019454 -0.3333553,-1.29642 0.1711726,-0.276962 0.1066331,-0.503567 -0.143419,-0.503567 -0.4870473,0 -1.0682644,1.704455 -0.9870585,2.894613 0.036816,0.539542 0.1041905,0.515661 0.2648541,-0.09386 0.1411274,-0.535435 0.4963673,-0.712349 1.0295173,-0.512717 z m -0.07042,-4.05696 c -0.6399359,-0.639937 -0.2980535,-2.566262 0.8329938,-4.693467 1.1239705,-2.1139 1.1611965,-2.137124 1.402479,-0.874926 0.1363182,0.713136 0.034223,1.695804 -0.226894,2.183707 -0.2611181,0.487903 -0.3563072,1.195776 -0.2115328,1.573049 0.1447759,0.377273 0.027635,0.685955 -0.2603101,0.685955 -0.50988,0 -0.4046955,-1.161882 0.2838816,-3.135829 0.2222053,-0.636994 0.085165,-0.555025 -0.4033009,0.241216 -1.6150658,2.632743 -0.3268215,4.733971 1.3414042,2.187933 1.000755,-1.527342 1.0109253,-2.17397 0.014925,-0.953442 -0.4202767,0.515058 -0.1058045,-0.257559 0.6988198,-1.716925 1.6848772,-3.055884 3.2011552,-3.627166 3.2011552,-1.206089 0,1.325827 -0.1315993,1.441336 -1.5679151,1.376173 -0.8623535,-0.03913 -1.5679153,0.136514 -1.5679153,0.390297 0,0.253788 0.217096,0.327261 0.4824355,0.163271 0.7080297,-0.437587 0.5975384,0.05404 -0.492241,2.190181 -0.711244,1.394151 -1.276271,1.910521 -2.0905542,1.910521 -0.6137317,0 -1.2606083,-0.144731 -1.4375007,-0.321625 z m 5.9862203,-5.60027 c -0.059671,-0.57685 -0.7213812,-0.465133 -0.9286882,0.156792 -0.1061357,0.318407 0.067541,0.492084 0.3859484,0.385947 C 9.03709,33.374911 9.2813229,33.13068 9.2614224,32.938309 Z M 95.21936,37.591041 c 0.534629,-0.157611 0.841548,-0.722485 0.836875,-1.540212 -0.006,-0.987734 -0.113222,-1.123924 -0.457665,-0.579285 -0.366922,0.580221 -0.532564,0.490907 -0.894752,-0.482437 -0.244459,-0.65696 -0.380762,-1.520119 -0.302895,-1.918128 0.07779,-0.39801 0.158179,-0.886476 0.178472,-1.085481 0.02035,-0.199004 0.579661,-0.361825 1.24301,-0.361825 1.135607,0 1.616761,0.875814 0.883821,1.608759 -0.177249,0.177245 -0.340071,1.240736 -0.361826,2.363311 -0.03241,1.670233 -0.214864,2.059502 -1.004431,2.14262 -0.747971,0.07874 -0.775092,0.04564 -0.120609,-0.147322 z m 0.198899,-4.640671 c -0.133875,-0.331674 -0.243343,-0.06031 -0.243343,0.603044 0,0.663349 0.109449,0.934719 0.243343,0.603045 0.133876,-0.331675 0.133876,-0.874415 0,-1.206089 z M 7.2835483,28.456435 c -0.7457216,-1.9614 -0.551264,-3.846655 0.4943772,-4.792947 0.530679,-0.480259 0.9648709,-1.135916 0.9648709,-1.457018 0,-0.321101 0.4662513,-1.176563 1.036113,-1.901026 0.8519936,-1.083134 1.2939076,-1.265647 2.4868056,-1.027068 2.045216,0.409044 2.868831,1.161447 2.133295,1.948842 -0.432879,0.463399 -0.792279,0.482757 -1.45632,0.07844 -1.222343,-0.744249 -2.324017,0.761807 -1.944678,2.658496 0.249374,1.246871 0.148922,1.387854 -0.988822,1.387854 -1.4892501,0 -1.6915519,0.741155 -0.3015227,1.104656 0.9698977,0.253633 1.3839727,1.789957 0.4824357,1.789957 -0.2653401,0 -0.4824357,-0.300323 -0.4824357,-0.667387 0,-0.367062 -0.4556663,-0.786544 -1.0125913,-0.932184 -0.8513237,-0.222625 -0.9676222,-0.09714 -0.7302399,0.787995 0.1552914,0.579036 0.2853139,1.230246 0.2889366,1.44713 0.00362,0.216885 0.4407801,0.256529 0.9714591,0.0881 0.5535028,-0.175675 0.9648712,-0.08668 0.9648712,0.208708 0,0.283219 -0.5481147,0.514944 -1.2180307,0.514944 -0.8635684,0 -1.3549485,-0.360124 -1.688524,-1.237495 z M 9.644515,23.969317 C 9.3617882,23.872177 8.7767297,24.146448 8.3443831,24.578795 7.6178971,25.305282 7.6568688,25.31867 8.8584317,24.7554 9.5735035,24.420187 9.9272399,24.066451 9.644515,23.969317 Z m 3.219965,-3.238285 c 0.823161,0.206601 1.157484,0.142228 0.95584,-0.184039 -0.594334,-0.961648 -3.07914,-0.567886 -3.683442,0.583709 -0.5634996,1.073837 -0.5587175,1.075811 0.446021,0.184038 0.714812,-0.634445 1.390589,-0.807332 2.281581,-0.583708 z m 78.857216,7.089423 c 0,-1.096681 1.871111,-1.735261 2.243219,-0.765574 0.360846,0.940378 -0.21194,1.674179 -1.306827,1.674179 -0.595446,0 -0.936392,-0.330833 -0.936392,-0.908605 z m -3.309885,-2.484493 c -1.198505,-0.998455 -0.637794,-1.288161 0.900135,-0.465082 1.400359,0.749449 1.560106,-0.155678 0.501476,-2.841437 -1.039316,-2.636771 -0.767524,-3.321276 0.864781,-2.177964 0.820307,0.574568 1.043493,1.220315 1.043493,3.019224 0,3.370093 -1.174082,4.244567 -3.309885,2.465259 z m 1.943838,-4.920013 c -0.357997,-0.358 -0.420788,-0.169643 -0.21093,0.632815 0.170587,0.652351 0.389266,0.871036 0.509709,0.509717 0.115935,-0.348049 -0.01839,-0.862189 -0.298779,-1.142532 z m -2.814016,3.166081 c 0.177476,-0.177474 -0.04176,-0.725344 -0.487108,-1.217489 -0.615588,-0.680206 -0.675213,-1.029391 -0.248665,-1.455946 0.426548,-0.426555 0.85192,-0.287947 1.773613,0.577929 0.666861,0.626487 1.212481,1.356161 1.212481,1.621501 0,0.26534 -0.54274,-0.02744 -1.206089,-0.650626 -0.663349,-0.623185 -1.206088,-0.901349 -1.206088,-0.618146 0,0.283203 0.339393,0.645156 0.754227,0.80434 0.803225,0.308229 0.515603,1.261113 -0.380672,1.261113 -0.293908,0 -0.389159,-0.145199 -0.211699,-0.322676 z m -4.953571,-4.440693 c -0.283295,-0.529338 -0.515075,-1.359417 -0.515075,-1.844619 0,-0.485204 -0.488466,-1.09739 -1.08548,-1.360417 -0.861403,-0.379504 -1.243643,-0.28768 -1.851617,0.444796 -0.422433,0.508948 -1.017608,0.767605 -1.326698,0.576575 -0.802244,-0.49582 -0.702999,-0.91928 0.52492,-2.239617 0.597014,-0.641949 1.086822,-1.496995 1.08848,-1.900103 0.0016,-0.527513 0.407779,-0.688142 1.447306,-0.573142 1.986021,0.219709 2.754706,1.112416 2.880698,3.345485 0.05895,1.045233 0.283988,2.186435 0.500044,2.536003 0.294451,0.476432 0.161586,0.547494 -0.530603,0.283796 -0.723729,-0.27572 -0.797421,-0.224847 -0.340796,0.235273 0.457485,0.460993 0.754334,0.444528 1.382343,-0.07666 0.702351,-0.58291 0.777672,-0.548111 0.618558,0.285785 -0.250761,1.314167 -2.138486,1.508106 -2.79208,0.286853 z m 0.209045,-3.918335 c -0.201236,-0.916198 -0.742286,-1.665721 -1.370056,-1.89795 -0.832247,-0.307867 -1.252734,-0.09204 -2.12552,1.090954 -1.27966,1.734478 -1.433376,2.462411 -0.211337,1.000732 0.690229,-0.825582 0.952478,-0.89473 1.434854,-0.378346 0.324633,0.347527 0.914275,0.507524 1.310309,0.355552 0.508352,-0.195072 0.720065,0.0462 0.720065,0.820579 0,0.603289 0.129203,0.967684 0.287125,0.809765 0.157922,-0.157919 0.137494,-0.968498 -0.04538,-1.801286 z M 81.108116,14.25599 c -0.618437,-0.399663 -0.600903,-0.468736 0.120609,-0.475048 0.464344,-0.0041 0.844262,0.209708 0.844262,0.475048 0,0.588383 -0.05443,0.588383 -0.964871,0 z M 18.25695,16.601721 c -0.78316,-1.375812 -0.792732,-1.607576 -0.109482,-2.650345 1.177531,-1.797142 2.933267,-1.276564 3.463767,0.632925 0.100764,0.362684 0.157322,0.775476 0.157322,1.23201 0,2.55539 -2.221265,3.052202 -3.511603,0.78541 z m 2.466968,-0.871246 c 0.223223,-1.525444 -0.686881,-2.371265 -1.5643,-1.453809 -0.475493,0.497188 -0.545273,1.032565 -0.238371,1.82886 0.525839,1.364358 1.58024,1.144988 1.802671,-0.375051 z M 71.956752,10.9475 c 0.985406,-1.1827804 2.397268,-1.1248008 2.397268,0.09845 0,0.373847 0.291571,0.921704 0.647925,1.217458 0.502653,0.417158 0.769802,0.270265 1.19142,-0.655071 0.334026,-0.733107 0.809511,-1.090724 1.233753,-0.927923 0.550263,0.211152 0.593562,0.625151 0.213478,2.04084 -0.75195,4.555754 -7.654325,0.957825 -5.683844,-1.773753 z m 4.698997,2.433747 c 0.114277,-0.342963 -0.100709,-0.461271 -0.535202,-0.294525 -1.109963,0.425933 -2.727705,-0.665218 -2.761988,-1.862928 -0.03,-1.048164 -0.03935,-1.046506 -0.492792,0.08702 -0.691329,1.438762 0.210929,1.492045 1.247035,2.054155 1.595052,0.878917 2.253999,0.883135 2.542947,0.01628 z m -53.439891,0.519929 c -0.765513,-0.294761 -2.416728,-2.00598 -2.405588,-2.493008 0.0037,-0.158406 0.137494,-0.776474 0.297484,-1.373488 0.352893,-1.3168122 2.776862,-1.5289331 3.462908,-0.303039 0.384458,0.686986 0.534516,0.644466 1.23006,-0.3485626 0.435702,-0.6220508 0.792186,-1.4936624 0.792186,-1.9369135 0,-1.4156645 1.32389,-1.4487702 1.593224,-0.039846 0.230258,1.2045208 0.203692,1.2263796 -0.432734,0.3560148 -0.638002,-0.8725195 -0.678056,-0.8420536 -0.678056,0.5157307 0,0.7936652 -0.260514,1.7035414 -0.578922,2.0219486 -0.699975,0.699975 -2.798126,0.772325 -2.798126,0.09649 0,-0.265339 -0.434192,-0.4824328 -0.964871,-0.4824328 -1.239414,0 -1.231486,0.9791878 0.0188,2.3212058 1.084526,1.164102 1.979496,1.311293 3.388395,0.557273 1.361546,-0.728676 2.819025,-3.8635924 2.52102,-5.4225027 -0.209747,-1.0971818 -0.08204,-1.3154491 0.769641,-1.3154491 1.213204,0 1.239745,0.5577933 0.149902,3.1502084 -1.734667,4.1262344 -3.830362,5.6724544 -6.365315,4.6963774 z m 0.321625,-1.414117 c -0.68776,-0.687758 -0.260912,-1.125682 1.097211,-1.125682 0.780359,0 1.528729,0.177814 1.663046,0.395143 0.134313,0.217326 -0.449887,0.310492 -1.298227,0.207033 -1.185703,-0.144594 -1.375071,-0.07033 -0.818784,0.321124 0.398009,0.280079 0.488467,0.512555 0.201017,0.516618 -0.287453,0.0041 -0.667371,-0.137344 -0.844263,-0.314236 z m 46.899914,-1.929734 c -0.03136,-0.221116 -0.02215,-0.5925892 0.02051,-0.8254955 0.04266,-0.2329063 -0.365762,-0.3075044 -0.907733,-0.1657739 -0.553776,0.1448061 -0.98542,0.02388 -0.98542,-0.2760646 0,-0.3649609 -0.183085,-0.3506763 -0.578923,0.045168 -1.172348,1.172343 -1.833676,0.637264 -1.818585,-1.4714326 0.01206,-1.6711188 0.108696,-1.8887756 0.522809,-1.1767853 0.279466,0.4804606 0.372078,1.228124 0.205789,1.661476 -0.261796,0.6822091 -0.175999,0.6735523 0.639589,-0.064541 0.901219,-0.8155873 0.964057,-0.8144174 1.453397,0.027047 0.450383,0.7744777 0.513206,0.7210796 0.526126,-0.4472042 0.0091,-0.8641746 -0.237614,-1.3266899 -0.708984,-1.3266899 -0.398009,0 -0.723654,-0.1708967 -0.723654,-0.3797702 0,-0.208875 -0.482284,-0.4161006 -1.07173,-0.4605028 -1.112918,-0.083838 -2.787753,1.100981 -2.787753,1.9721238 0,0.2749294 0.318739,0.078455 0.708305,-0.4365981 0.599709,-0.7928874 0.710654,-0.8152197 0.72365,-0.1456505 0.0091,0.4349487 -0.393351,1.2955246 -0.892852,1.9123923 -0.809045,0.9991252 -1.049524,1.0571865 -2.202604,0.5318036 -1.020126,-0.4647994 -1.262158,-0.8700407 -1.142167,-1.9123937 0.12272,-1.066024 0.38625,-1.3124551 1.358357,-1.2702315 0.675033,0.029323 1.483656,-0.342413 1.836482,-0.844262 0.683867,-0.9726939 2.735153,-1.2134172 3.249414,-0.3813246 0.175168,0.2834293 0.618858,0.4000612 0.985992,0.2591825 0.861193,-0.3304714 1.674126,1.1887812 1.333376,2.4918574 -0.221709,0.8478276 -0.09468,0.9658434 0.790802,0.7343 0.88744,-0.2320725 1.029081,-0.098824 0.891978,0.8391618 -0.155133,1.061245 -1.305877,1.957026 -1.426215,1.110208 z M 63.880226,7.9843383 c -0.280085,-1.0710384 -1.587093,-1.335903 -1.587093,-0.3216247 0,0.8046888 0.464887,1.2864956 1.241322,1.2864956 0.360575,0 0.497888,-0.383182 0.345771,-0.9648709 z M 31.22766,9.6334051 C 30.6353,8.0897413 30.9542,6.9899528 32.152484,6.4439806 c 0.669707,-0.3051418 1.342579,-1.0525429 1.495265,-1.6608941 0.267776,-1.0669104 1.888329,-2.0070203 2.465226,-1.430121 0.154596,0.1545949 0.569607,0.041625 0.922247,-0.2510399 0.906676,-0.7524726 2.943793,-0.1217395 3.307453,1.0240492 0.168234,0.5300624 0.156607,1.4340621 -0.02581,2.0088899 L 39.985151,7.1800038 39.088994,6.0142543 C 38.249865,4.9226898 38.188518,4.9099068 38.124947,5.8133757 c -0.03734,0.530679 -0.03266,1.2362408 0.01041,1.5679153 0.131162,1.0100298 -1.805621,0.675782 -2.137169,-0.368831 -0.422985,-1.3327053 -1.350569,-0.643192 -1.002169,0.7449527 0.153936,0.6133187 0.148305,1.4580179 -0.01252,1.8771111 -0.395931,1.0317742 -3.359801,1.0308892 -3.755823,-0.00111 z M 34.158026,8.702451 c 0.07725,-0.7527969 0.04487,-0.7775699 -0.150445,-0.115076 -0.284637,0.9655056 -0.928582,1.0990859 -1.425143,0.295629 -0.189509,-0.30663 0.167159,-0.9304854 0.808581,-1.4143123 0.63121,-0.4761232 0.988076,-1.0252568 0.793037,-1.2202964 -0.195038,-0.1950411 -0.354619,-0.1266544 -0.354619,0.1519551 0,0.2786156 -0.434192,0.620118 -0.96487,0.7588936 -0.936952,0.2450184 -1.322795,1.7536573 -0.626569,2.4498811 0.625618,0.6256169 1.820693,0.061269 1.920027,-0.9066817 z m 4.270779,-4.0951639 c 0.362715,0 0.880762,0.3799179 1.151216,0.844262 0.647226,1.1112162 0.666573,0.3290345 0.02167,-0.8759776 -0.598852,-1.1189533 -1.571939,-1.2014799 -2.400146,-0.2035531 -0.426179,0.5135239 -0.781912,0.5832011 -1.201143,0.2352687 -0.417779,-0.3467278 -0.767033,-0.2878104 -1.16965,0.1973146 -0.474318,0.5715126 -0.396688,0.645274 0.446928,0.4246638 0.781834,-0.2044547 1.090565,-7.719e-4 1.318211,0.8697754 l 0.297272,1.1367581 0.438084,-1.3142552 c 0.240946,-0.7228406 0.734848,-1.3142567 1.097558,-1.3142567 z m 16.108447,1.3587418 c -0.305947,-1.2652685 -0.281047,-1.8411773 0.07961,-1.8411773 0.241865,0 0.439754,-0.6151051 0.439754,-1.3668993 0,-0.8933997 0.250671,-1.3669026 0.723654,-1.3669026 0.414034,0 0.720486,0.4300159 0.716266,1.0050759 -0.006,0.8257034 -0.0909,0.8759264 -0.475048,0.2814197 -0.382301,-0.5915533 -0.469018,-0.5357747 -0.475049,0.3055595 -0.0045,0.6443559 0.37241,1.1285341 1.008305,1.2948236 1.374172,0.3593525 0.907688,1.4988365 -0.691073,1.6881005 -0.709226,0.083959 -1.306104,0.083959 -1.326404,0 z M 59.309164,4.5904787 C 57.180855,3.4663408 56.826702,2.9756753 57.228933,1.7083566 c 0.437765,-1.37929047 0.902561,-1.21821586 3.350831,1.1612221 1.70746,1.6594709 2.018253,2.1850482 1.426365,2.4121773 -0.90746,0.3482219 -0.560514,0.4371483 -2.696965,-0.6912773 z m 2.501534,0.2750003 c 0,-0.1233376 -0.488466,-0.4609535 -1.08548,-0.750267 -1.042362,-0.5051295 -1.048287,-0.4962211 -0.148951,0.2242436 0.984288,0.7885829 1.234491,0.8951935 1.234491,0.5260234 z M 58.816146,2.6967899 C 58.401824,2.0333763 58.120262,1.9215916 57.872652,2.3222301 c -0.194119,0.3140865 -0.09302,0.7362945 0.224635,0.938239 1.019672,0.6482138 1.325793,0.4081765 0.718859,-0.5636792 z M 52.644421,1.9538921 c 0,-0.3980093 0.325644,-0.7236547 0.723653,-0.7236547 0.39801,0 0.723654,0.3256454 0.723654,0.7236547 0,0.3980092 -0.325644,0.7236532 -0.723654,0.7236532 -0.398009,0 -0.723653,-0.325644 -0.723653,-0.7236532 z"
     id="path3715"
     inkscape:connector-curvature="0"
     sodipodi:nodetypes="ssssscccscccccccscccccccccccccccsccsccscccccccccsccsssssccsccccccsssccccscscccsccccccccssccccsccscsccscsssccscsccssssscccccccccscscsssssscccccccccsscsccccscscsccscccccccccccssccsccscscsssccccccsccccccssscsssssssccscsccscccsscccscccccsccsccscssccccsccccscsccccscccccccccccccccccccccccccsccssccsccsccsccccssccsccccsccccccsccssscccccccscccccccccccscccsccsccscccsccccccsccccccscccccscccsssssscccccccccsccccccccccccsssccsscssccccsscccscccccccccscccccscsscsccccsccsccccsccccsccsccssssssscsscsccsscccsscsssssscssccccscccccccccscscsccccccscsccccccccccssccssccccsccsssccscsscccccccccsccccccccsssssssscscscccccccccccccsccccsccsscsccccccccccccccccscccccscccsccccccccscscsssccscccccscccsccsscccsscccccccccccccsccscsssc" />
</svg>
