<?xml version="1.0" encoding="UTF-8" standalone="no"?>
<!-- Created with Inkscape (http://www.inkscape.org/) -->

<svg
   xmlns:dc="http://purl.org/dc/elements/1.1/"
   xmlns:cc="http://creativecommons.org/ns#"
   xmlns:rdf="http://www.w3.org/1999/02/22-rdf-syntax-ns#"
   xmlns:svg="http://www.w3.org/2000/svg"
   xmlns="http://www.w3.org/2000/svg"
   xmlns:sodipodi="http://sodipodi.sourceforge.net/DTD/sodipodi-0.dtd"
   xmlns:inkscape="http://www.inkscape.org/namespaces/inkscape"
   width="150"
   height="100"
   viewBox="0 0 39.6875 26.458334"
   version="1.1"
   id="svg8"
   sodipodi:docname="ha.svg"
   inkscape:version="0.92.4 (5da689c313, 2019-01-14)">
  <defs
     id="defs2" />
  <sodipodi:namedview
     id="base"
     pagecolor="#ffffff"
     bordercolor="#666666"
     borderopacity="1.0"
     inkscape:pageopacity="0.0"
     inkscape:pageshadow="2"
     inkscape:zoom="2.0475"
     inkscape:cx="-12.16166"
     inkscape:cy="66.412159"
     inkscape:document-units="px"
     inkscape:current-layer="layer1"
     showgrid="true"
     inkscape:window-width="1920"
     inkscape:window-height="1018"
     inkscape:window-x="1072"
     inkscape:window-y="442"
     inkscape:window-maximized="1"
     units="px"
     showguides="false"
     fit-margin-left="-0.1">
    <inkscape:grid
       type="xygrid"
       id="grid4919"
       enabled="false"
       spacingx="1.3229167"
       spacingy="1.3229167"
       snapvisiblegridlinesonly="true" />
  </sodipodi:namedview>
  <metadata
     id="metadata5">
    <rdf:RDF>
      <cc:Work
         rdf:about="">
        <dc:format>image/svg+xml</dc:format>
        <dc:type
           rdf:resource="http://purl.org/dc/dcmitype/StillImage" />
        <dc:title></dc:title>
      </cc:Work>
    </rdf:RDF>
  </metadata>
  <g
     inkscape:label="Layer 1"
     inkscape:groupmode="layer"
     id="layer1"
     transform="translate(0,-270.54165)">
    <path
       style="fill:#000000;stroke-width:0.26458332"
       d="m 8.9560471,289.02864 c -0.9531678,-0.74976 -1.3253866,-2.33176 -1.1491283,-4.884 0.1781225,-2.57924 0.5333905,-3.64273 1.1739856,-3.51432 0.3370183,0.0676 0.4425108,0.30574 0.3893904,0.87915 -0.040073,0.43257 -0.099604,1.87465 -0.1322916,3.20464 -0.050597,2.05867 0.015494,2.50116 0.4445958,2.97656 1.562015,1.73055 6.430729,-0.49124 12.989721,-5.92775 2.801689,-2.32221 5.49605,-3.83259 6.836958,-3.83259 0.611716,0 1.197356,0.22285 1.681101,0.63969 0.72153,0.62173 0.742032,0.71267 0.730769,3.24114 -0.01432,3.21549 -0.492958,5.37959 -1.18981,5.37959 -0.73045,0 -0.775462,-0.25511 -0.374819,-2.12426 0.475578,-2.21874 0.48901,-4.77692 0.02839,-5.40686 -0.81442,-1.11378 -3.4691,0.10651 -7.183424,3.30206 -2.785145,2.39614 -6.021211,4.57962 -8.451371,5.70243 -2.414655,1.11564 -4.659627,1.25688 -5.7940689,0.36452 z"
       id="path59"
       inkscape:connector-curvature="0" />
  </g>
</svg>
