<?xml version="1.0" encoding="UTF-8" standalone="no"?>
<!-- Created with Inkscape (http://www.inkscape.org/) -->

<svg
   xmlns:dc="http://purl.org/dc/elements/1.1/"
   xmlns:cc="http://creativecommons.org/ns#"
   xmlns:rdf="http://www.w3.org/1999/02/22-rdf-syntax-ns#"
   xmlns:svg="http://www.w3.org/2000/svg"
   xmlns="http://www.w3.org/2000/svg"
   xmlns:sodipodi="http://sodipodi.sourceforge.net/DTD/sodipodi-0.dtd"
   xmlns:inkscape="http://www.inkscape.org/namespaces/inkscape"
   width="150"
   height="100"
   viewBox="0 0 39.6875 26.458334"
   version="1.1"
   id="svg8"
   sodipodi:docname="la.svg"
   inkscape:version="0.92.4 (5da689c313, 2019-01-14)">
  <defs
     id="defs2" />
  <sodipodi:namedview
     id="base"
     pagecolor="#ffffff"
     bordercolor="#666666"
     borderopacity="1.0"
     inkscape:pageopacity="0.0"
     inkscape:pageshadow="2"
     inkscape:zoom="2.0475"
     inkscape:cx="-23.150671"
     inkscape:cy="66.412159"
     inkscape:document-units="px"
     inkscape:current-layer="layer1"
     showgrid="true"
     inkscape:window-width="1920"
     inkscape:window-height="1018"
     inkscape:window-x="1072"
     inkscape:window-y="442"
     inkscape:window-maximized="1"
     units="px"
     showguides="false"
     fit-margin-left="-0.1">
    <inkscape:grid
       type="xygrid"
       id="grid4919"
       enabled="false"
       spacingx="1.3229167"
       spacingy="1.3229167"
       snapvisiblegridlinesonly="true" />
  </sodipodi:namedview>
  <metadata
     id="metadata5">
    <rdf:RDF>
      <cc:Work
         rdf:about="">
        <dc:format>image/svg+xml</dc:format>
        <dc:type
           rdf:resource="http://purl.org/dc/dcmitype/StillImage" />
        <dc:title></dc:title>
      </cc:Work>
    </rdf:RDF>
  </metadata>
  <g
     inkscape:label="Layer 1"
     inkscape:groupmode="layer"
     id="layer1"
     transform="translate(0,-270.54165)">
    <path
       style="fill:#000000;stroke-width:0.26458335"
       d="m 6.7455851,289.84539 c -0.08922,-0.14437 -0.06649,-0.41688 0.05053,-0.60557 0.283761,-0.45758 2.352589,-2.32086 5.1075489,-4.60008 8.632924,-7.14216 12.964583,-8.35309 12.964583,-3.62431 0,0.78074 0.05998,1.41953 0.133294,1.41953 0.07331,0 1.704455,-1.13524 3.624763,-2.52276 1.920309,-1.38751 3.666165,-2.48884 3.879679,-2.44739 0.463243,0.0899 0.630613,0.49781 0.361608,0.88125 -0.48632,0.6932 -8.877792,6.49193 -9.275149,6.40937 -0.327065,-0.068 -0.415272,-0.29855 -0.334947,-0.87563 0.05997,-0.43086 0.119503,-1.55729 0.132292,-2.50317 0.02262,-1.67329 0.0042,-1.722 -0.682608,-1.80142 -1.677873,-0.19402 -6.864349,3.27733 -13.3170569,8.91321 -1.839816,1.60692 -2.3335,1.86024 -2.644538,1.35697 z"
       id="path98"
       inkscape:connector-curvature="0" />
  </g>
</svg>
