<?xml version="1.0" encoding="UTF-8" standalone="no"?>
<!-- Created with Inkscape (http://www.inkscape.org/) -->

<svg
   xmlns:dc="http://purl.org/dc/elements/1.1/"
   xmlns:cc="http://creativecommons.org/ns#"
   xmlns:rdf="http://www.w3.org/1999/02/22-rdf-syntax-ns#"
   xmlns:svg="http://www.w3.org/2000/svg"
   xmlns="http://www.w3.org/2000/svg"
   xmlns:sodipodi="http://sodipodi.sourceforge.net/DTD/sodipodi-0.dtd"
   xmlns:inkscape="http://www.inkscape.org/namespaces/inkscape"
   width="150"
   height="100"
   viewBox="0 0 39.6875 26.458334"
   version="1.1"
   id="svg8"
   sodipodi:docname="ra.svg"
   inkscape:version="0.92.4 (5da689c313, 2019-01-14)">
  <defs
     id="defs2" />
  <sodipodi:namedview
     id="base"
     pagecolor="#ffffff"
     bordercolor="#666666"
     borderopacity="1.0"
     inkscape:pageopacity="0.0"
     inkscape:pageshadow="2"
     inkscape:zoom="2.0475"
     inkscape:cx="99.984613"
     inkscape:cy="66.412159"
     inkscape:document-units="px"
     inkscape:current-layer="layer1"
     showgrid="true"
     inkscape:window-width="944"
     inkscape:window-height="1002"
     inkscape:window-x="2040"
     inkscape:window-y="450"
     inkscape:window-maximized="0"
     units="px"
     showguides="false"
     fit-margin-left="-0.1">
    <inkscape:grid
       type="xygrid"
       id="grid4919"
       enabled="false"
       spacingx="1.3229167"
       spacingy="1.3229167"
       snapvisiblegridlinesonly="true" />
  </sodipodi:namedview>
  <metadata
     id="metadata5">
    <rdf:RDF>
      <cc:Work
         rdf:about="">
        <dc:format>image/svg+xml</dc:format>
        <dc:type
           rdf:resource="http://purl.org/dc/dcmitype/StillImage" />
        <dc:title></dc:title>
      </cc:Work>
    </rdf:RDF>
  </metadata>
  <g
     inkscape:label="Layer 1"
     inkscape:groupmode="layer"
     id="layer1"
     transform="translate(0,-270.54165)">
    <path
       style="fill:#000000;stroke-width:0.26458332"
       d="m 6.2593065,289.84638 c -0.08584,-0.2237 0.06672,-0.65347 0.339033,-0.95504 1.00586,-1.11393 5.6300825,-5.01165 8.5080495,-7.17137 3.672976,-2.75631 5.825263,-3.90228 7.329051,-3.90228 1.532528,0 1.995586,0.56697 1.961844,2.40209 -0.03739,2.03333 -0.283876,2.74165 -0.989514,2.84352 -0.588198,0.0849 -0.594553,0.0557 -0.416179,-1.91272 0.211303,-2.33181 0.0044,-2.5684 -1.645902,-1.88183 -1.74347,0.72534 -5.285185,3.16636 -4.745052,3.27038 0.501111,0.0965 0.500914,0.23678 -0.0048,3.41197 -0.607431,3.81392 3.963577,1.67749 13.105348,-6.1253 1.634973,-1.3955 3.140442,-2.53727 3.345486,-2.53727 1.549249,0 -1.414325,2.98514 -7.641179,7.6968 -3.586349,2.71367 -5.787967,3.91229 -7.574752,4.12391 -1.144151,0.13551 -1.308164,0.083 -1.835426,-0.58728 -0.840068,-1.06797 -0.927707,-1.72517 -0.508386,-3.81233 0.206062,-1.02567 0.32723,-1.86485 0.269262,-1.86485 -0.168403,0 -3.956179,3.1229 -6.4979205,5.35733 -1.283195,1.12805 -2.447791,2.051 -2.587991,2.051 -0.1402,0 -0.325144,-0.18303 -0.410986,-0.40673 z"
       id="path165"
       inkscape:connector-curvature="0" />
  </g>
</svg>
