<?xml version="1.0" encoding="UTF-8" standalone="no"?>
<!-- Created with Inkscape (http://www.inkscape.org/) -->

<svg
   xmlns:dc="http://purl.org/dc/elements/1.1/"
   xmlns:cc="http://creativecommons.org/ns#"
   xmlns:rdf="http://www.w3.org/1999/02/22-rdf-syntax-ns#"
   xmlns:svg="http://www.w3.org/2000/svg"
   xmlns="http://www.w3.org/2000/svg"
   xmlns:sodipodi="http://sodipodi.sourceforge.net/DTD/sodipodi-0.dtd"
   xmlns:inkscape="http://www.inkscape.org/namespaces/inkscape"
   width="150"
   height="100"
   viewBox="0 0 39.6875 26.458334"
   version="1.1"
   id="svg8"
   sodipodi:docname="sa.svg"
   inkscape:version="0.92.4 (5da689c313, 2019-01-14)">
  <defs
     id="defs2" />
  <sodipodi:namedview
     id="base"
     pagecolor="#ffffff"
     bordercolor="#666666"
     borderopacity="1.0"
     inkscape:pageopacity="0.0"
     inkscape:pageshadow="2"
     inkscape:zoom="2.0475"
     inkscape:cx="99.984613"
     inkscape:cy="66.412159"
     inkscape:document-units="px"
     inkscape:current-layer="layer1"
     showgrid="true"
     inkscape:window-width="944"
     inkscape:window-height="1002"
     inkscape:window-x="2040"
     inkscape:window-y="450"
     inkscape:window-maximized="0"
     units="px"
     showguides="false"
     fit-margin-left="-0.1">
    <inkscape:grid
       type="xygrid"
       id="grid4919"
       enabled="false"
       spacingx="1.3229167"
       spacingy="1.3229167"
       snapvisiblegridlinesonly="true" />
  </sodipodi:namedview>
  <metadata
     id="metadata5">
    <rdf:RDF>
      <cc:Work
         rdf:about="">
        <dc:format>image/svg+xml</dc:format>
        <dc:type
           rdf:resource="http://purl.org/dc/dcmitype/StillImage" />
        <dc:title></dc:title>
      </cc:Work>
    </rdf:RDF>
  </metadata>
  <g
     inkscape:label="Layer 1"
     inkscape:groupmode="layer"
     id="layer1"
     transform="translate(0,-270.54165)">
    <path
       style="fill:#000000;stroke-width:0.26458335"
       d="m 8.0697974,290.54728 c 0,-0.3509 1.240088,-1.43734 3.9517836,-3.46216 2.173481,-1.62294 3.902691,-3.08946 3.84269,-3.25895 -0.06,-0.16948 0.0432,-1.76699 0.229348,-3.55002 0.340555,-3.2621 0.670542,-4.1769 1.285034,-3.5624 0.238576,0.23857 0.244078,1.05346 0.02313,3.42635 -0.159438,1.71233 -0.263964,3.13974 -0.23228,3.17203 0.03168,0.0323 0.705882,-0.37905 1.498218,-0.91407 5.134202,-3.46683 9.72583,-5.05693 11.641726,-4.03158 0.802123,0.42929 1.308261,1.69232 1.308261,3.26467 0,1.78728 -0.178707,2.28374 -0.822057,2.28374 -0.443723,0 -0.500859,-0.21128 -0.500859,-1.85208 0,-1.99762 -0.494989,-2.91042 -1.578254,-2.91042 -2.403193,0 -8.833342,3.66232 -16.31516,9.29236 -3.5091666,2.64064 -4.3315856,3.03984 -4.3315856,2.10253 z"
       id="path178"
       inkscape:connector-curvature="0" />
  </g>
</svg>
