<?xml version="1.0" encoding="UTF-8" standalone="no"?>
<!-- Created with Inkscape (http://www.inkscape.org/) -->

<svg
   xmlns:dc="http://purl.org/dc/elements/1.1/"
   xmlns:cc="http://creativecommons.org/ns#"
   xmlns:rdf="http://www.w3.org/1999/02/22-rdf-syntax-ns#"
   xmlns:svg="http://www.w3.org/2000/svg"
   xmlns="http://www.w3.org/2000/svg"
   xmlns:sodipodi="http://sodipodi.sourceforge.net/DTD/sodipodi-0.dtd"
   xmlns:inkscape="http://www.inkscape.org/namespaces/inkscape"
   width="150"
   height="100"
   viewBox="0 0 39.6875 26.458334"
   version="1.1"
   id="svg8"
   sodipodi:docname="ta.svg"
   inkscape:version="0.92.4 (5da689c313, 2019-01-14)">
  <defs
     id="defs2" />
  <sodipodi:namedview
     id="base"
     pagecolor="#ffffff"
     bordercolor="#666666"
     borderopacity="1.0"
     inkscape:pageopacity="0.0"
     inkscape:pageshadow="2"
     inkscape:zoom="2.0475"
     inkscape:cx="99.984613"
     inkscape:cy="66.412159"
     inkscape:document-units="px"
     inkscape:current-layer="layer1"
     showgrid="true"
     inkscape:window-width="944"
     inkscape:window-height="1002"
     inkscape:window-x="2040"
     inkscape:window-y="450"
     inkscape:window-maximized="0"
     units="px"
     showguides="false"
     fit-margin-left="-0.1">
    <inkscape:grid
       type="xygrid"
       id="grid4919"
       enabled="false"
       spacingx="1.3229167"
       spacingy="1.3229167"
       snapvisiblegridlinesonly="true" />
  </sodipodi:namedview>
  <metadata
     id="metadata5">
    <rdf:RDF>
      <cc:Work
         rdf:about="">
        <dc:format>image/svg+xml</dc:format>
        <dc:type
           rdf:resource="http://purl.org/dc/dcmitype/StillImage" />
        <dc:title></dc:title>
      </cc:Work>
    </rdf:RDF>
  </metadata>
  <g
     inkscape:label="Layer 1"
     inkscape:groupmode="layer"
     id="layer1"
     transform="translate(0,-270.54165)">
    <path
       style="fill:#000000;stroke-width:0.26458335"
       d="m 6.5186289,289.02068 c 0.0076,-0.52552 15.4309051,-10.91406 16.2035221,-10.91406 0.270804,0 0.458528,0.20169 0.458528,0.49263 0,0.33611 -1.000287,1.15469 -3.148237,2.57634 -3.131431,2.07257 -3.151219,2.09219 -3.706845,3.67455 -0.307234,0.87497 -0.557402,1.85875 -0.55593,2.18617 0.0023,0.51184 0.142837,0.59531 1.002331,0.59531 1.781686,0 6.417226,-2.55394 12.467114,-6.86873 2.912141,-2.07694 3.777905,-2.42842 3.92854,-1.5949 0.127508,0.70555 -8.819639,6.73824 -12.99603,8.76268 -1.83041,0.88726 -2.365503,1.03112 -3.596722,0.96695 -1.254525,-0.0654 -1.49892,-0.16925 -1.842271,-0.78305 -0.319058,-0.57037 -0.342494,-0.96822 -0.120786,-2.05052 0.151293,-0.73857 0.241624,-1.34285 0.200736,-1.34285 -0.04089,0 -1.726363,1.07157 -3.7455,2.38125 -3.7064181,2.40412 -4.5606951,2.7644 -4.5484501,1.91823 z"
       id="path191"
       inkscape:connector-curvature="0" />
  </g>
</svg>
