<?xml version="1.0" encoding="UTF-8" standalone="no"?>
<!-- Created with Inkscape (http://www.inkscape.org/) -->

<svg
   xmlns:dc="http://purl.org/dc/elements/1.1/"
   xmlns:cc="http://creativecommons.org/ns#"
   xmlns:rdf="http://www.w3.org/1999/02/22-rdf-syntax-ns#"
   xmlns:svg="http://www.w3.org/2000/svg"
   xmlns="http://www.w3.org/2000/svg"
   xmlns:sodipodi="http://sodipodi.sourceforge.net/DTD/sodipodi-0.dtd"
   xmlns:inkscape="http://www.inkscape.org/namespaces/inkscape"
   width="150"
   height="100"
   viewBox="0 0 39.6875 26.458334"
   version="1.1"
   id="svg8"
   sodipodi:docname="ya.svg"
   inkscape:version="0.92.4 (5da689c313, 2019-01-14)">
  <defs
     id="defs2" />
  <sodipodi:namedview
     id="base"
     pagecolor="#ffffff"
     bordercolor="#666666"
     borderopacity="1.0"
     inkscape:pageopacity="0.0"
     inkscape:pageshadow="2"
     inkscape:zoom="2.0475"
     inkscape:cx="105.84542"
     inkscape:cy="64.458557"
     inkscape:document-units="px"
     inkscape:current-layer="layer1"
     showgrid="true"
     inkscape:window-width="944"
     inkscape:window-height="1002"
     inkscape:window-x="2040"
     inkscape:window-y="450"
     inkscape:window-maximized="0"
     units="px"
     showguides="false"
     fit-margin-left="-0.1">
    <inkscape:grid
       type="xygrid"
       id="grid4919"
       enabled="false"
       spacingx="1.3229167"
       spacingy="1.3229167"
       snapvisiblegridlinesonly="true" />
  </sodipodi:namedview>
  <metadata
     id="metadata5">
    <rdf:RDF>
      <cc:Work
         rdf:about="">
        <dc:format>image/svg+xml</dc:format>
        <dc:type
           rdf:resource="http://purl.org/dc/dcmitype/StillImage" />
        <dc:title></dc:title>
      </cc:Work>
    </rdf:RDF>
  </metadata>
  <g
     inkscape:label="Layer 1"
     inkscape:groupmode="layer"
     id="layer1"
     transform="translate(0,-270.54165)">
    <path
       style="fill:#000000;stroke-width:0.26458332"
       d="m 12.021077,288.89798 c -0.28734,-0.28734 -0.584997,-0.82312 -0.661459,-1.19063 -0.07646,-0.3675 -0.199737,-0.96152 -0.273945,-1.32005 -0.132642,-0.64083 -0.154903,-0.63188 -1.315954,0.52917 -0.882201,0.8822 -1.385287,1.18103 -1.988291,1.18103 -1.086545,0 -1.424744,-0.89461 -1.216897,-3.21894 0.197712,-2.211 0.34854,-2.60189 1.003958,-2.60189 0.496639,0 0.514622,0.11991 0.337273,2.24895 -0.112141,1.34624 -0.08844,2.24896 0.05904,2.24896 0.324029,0 1.324741,-1.09568 2.726909,-2.98571 0.624496,-0.84178 1.266861,-1.48603 1.427479,-1.43168 0.184041,0.0623 0.292033,0.97958 0.292033,2.48056 0,2.60721 0.273939,3.25975 1.368453,3.25975 1.237669,0 3.431317,-1.44749 7.362797,-4.85837 5.635678,-4.88941 9.521455,-6.2945 11.361135,-4.10817 0.835617,0.99308 0.913331,2.08737 0.14824,2.08737 -0.291041,0 -0.529166,-0.0966 -0.529166,-0.21469 0,-0.11808 -0.242764,-0.47527 -0.539475,-0.79375 -1.30901,-1.40506 -4.314695,-0.35734 -8.191776,2.85549 -5.214922,4.32146 -6.21363,5.08818 -7.431897,5.70552 -1.588158,0.80478 -3.208474,0.85706 -3.938457,0.12708 z"
       id="path217"
       inkscape:connector-curvature="0" />
  </g>
</svg>
